<mxfile host="app.diagrams.net" modified="2022-06-19T14:50:13.849Z" agent="5.0 (Macintosh; Intel Mac OS X 10_15_7) AppleWebKit/537.36 (KHTML, like Gecko) Chrome/102.0.0.0 Safari/537.36" etag="BO1l4XPxLek3olU3fOFT" version="20.0.1" type="github">
  <diagram id="6q1AIOpyv46VLWpAABF8" name="Page-1">
    <mxGraphModel dx="916" dy="1884" grid="1" gridSize="10" guides="1" tooltips="1" connect="1" arrows="1" fold="1" page="1" pageScale="1" pageWidth="827" pageHeight="1169" math="0" shadow="0">
      <root>
        <mxCell id="0" />
        <mxCell id="1" parent="0" />
        <mxCell id="ZjG4IA8VryL87aqI9rix-1" value="&lt;font style=&quot;font-size: 20px;&quot;&gt;&lt;b&gt;磁盘&lt;/b&gt;&lt;/font&gt;" style="rounded=1;whiteSpace=wrap;html=1;fontSize=16;verticalAlign=top;" vertex="1" parent="1">
          <mxGeometry x="868" y="-10" width="160" height="850" as="geometry" />
        </mxCell>
        <mxCell id="ZjG4IA8VryL87aqI9rix-2" value="&lt;font style=&quot;font-size: 20px;&quot; color=&quot;#000000&quot;&gt;&lt;b style=&quot;background-color: rgb(255, 255, 255);&quot;&gt;内存&lt;/b&gt;&lt;/font&gt;" style="rounded=1;whiteSpace=wrap;html=1;labelBackgroundColor=#99FFFF;fontSize=16;fontColor=#99FFFF;strokeColor=default;fillColor=default;verticalAlign=top;" vertex="1" parent="1">
          <mxGeometry x="20" y="-10" width="740" height="850" as="geometry" />
        </mxCell>
        <mxCell id="ZjG4IA8VryL87aqI9rix-3" value="" style="rounded=1;whiteSpace=wrap;html=1;labelBackgroundColor=#99FFFF;fontSize=16;dashed=1;fillColor=#f9f7ed;strokeColor=#36393d;" vertex="1" parent="1">
          <mxGeometry x="50" y="595" width="920" height="220" as="geometry" />
        </mxCell>
        <mxCell id="ZjG4IA8VryL87aqI9rix-4" value="" style="rounded=1;whiteSpace=wrap;html=1;labelBackgroundColor=#99FFFF;fontSize=16;dashed=1;fillColor=#f9f7ed;strokeColor=#36393d;" vertex="1" parent="1">
          <mxGeometry x="40" y="340" width="920" height="220" as="geometry" />
        </mxCell>
        <mxCell id="ZjG4IA8VryL87aqI9rix-5" value="" style="rounded=1;whiteSpace=wrap;html=1;labelBackgroundColor=#99FFFF;fontSize=16;dashed=1;fillColor=#f9f7ed;strokeColor=#36393d;" vertex="1" parent="1">
          <mxGeometry x="40" y="100" width="920" height="220" as="geometry" />
        </mxCell>
        <mxCell id="ZjG4IA8VryL87aqI9rix-6" value="" style="rounded=1;whiteSpace=wrap;html=1;fontSize=16;fillColor=#cce5ff;strokeColor=#36393d;" vertex="1" parent="1">
          <mxGeometry x="160" y="150" width="140" height="150" as="geometry" />
        </mxCell>
        <mxCell id="ZjG4IA8VryL87aqI9rix-7" value="&lt;span style=&quot;&quot;&gt;redo log buffer&lt;/span&gt;" style="text;html=1;align=center;verticalAlign=middle;resizable=0;points=[];autosize=1;strokeColor=none;fillColor=none;fontSize=16;" vertex="1" parent="1">
          <mxGeometry x="370" y="120" width="120" height="20" as="geometry" />
        </mxCell>
        <mxCell id="ZjG4IA8VryL87aqI9rix-8" value="buffer pool" style="text;html=1;align=center;verticalAlign=middle;resizable=0;points=[];autosize=1;strokeColor=none;fillColor=none;fontSize=16;" vertex="1" parent="1">
          <mxGeometry x="190" y="120" width="90" height="20" as="geometry" />
        </mxCell>
        <mxCell id="ZjG4IA8VryL87aqI9rix-9" value="" style="rounded=1;whiteSpace=wrap;html=1;fontSize=16;fillColor=#cdeb8b;strokeColor=#36393d;" vertex="1" parent="1">
          <mxGeometry x="370" y="150" width="120" height="150" as="geometry" />
        </mxCell>
        <mxCell id="ZjG4IA8VryL87aqI9rix-10" value="DML 语句&lt;br&gt;（增删改）" style="text;html=1;align=center;verticalAlign=middle;resizable=0;points=[];autosize=1;strokeColor=none;fillColor=none;fontSize=16;" vertex="1" parent="1">
          <mxGeometry x="190" y="159" width="100" height="40" as="geometry" />
        </mxCell>
        <mxCell id="ZjG4IA8VryL87aqI9rix-11" value="" style="shape=flexArrow;endArrow=classic;html=1;rounded=0;fontSize=16;fillColor=#f8cecc;gradientColor=#ea6b66;strokeColor=#b85450;" edge="1" parent="1">
          <mxGeometry width="50" height="50" relative="1" as="geometry">
            <mxPoint x="190" y="280" as="sourcePoint" />
            <mxPoint x="370" y="280" as="targetPoint" />
          </mxGeometry>
        </mxCell>
        <mxCell id="ZjG4IA8VryL87aqI9rix-12" value="commit&lt;br&gt;提交事务" style="text;html=1;align=center;verticalAlign=middle;resizable=0;points=[];autosize=1;strokeColor=none;fillColor=none;fontSize=16;" vertex="1" parent="1">
          <mxGeometry x="190" y="230" width="80" height="40" as="geometry" />
        </mxCell>
        <mxCell id="ZjG4IA8VryL87aqI9rix-13" value="" style="shape=cylinder3;whiteSpace=wrap;html=1;boundedLbl=1;backgroundOutline=1;size=15;fontSize=16;fillColor=#f5f5f5;fontColor=#333333;strokeColor=#666666;" vertex="1" parent="1">
          <mxGeometry x="878" y="140" width="140" height="170" as="geometry" />
        </mxCell>
        <mxCell id="ZjG4IA8VryL87aqI9rix-14" value="" style="shape=cylinder3;whiteSpace=wrap;html=1;boundedLbl=1;backgroundOutline=1;size=15;fontSize=16;fillColor=#f5f5f5;fontColor=#333333;strokeColor=#666666;" vertex="1" parent="1">
          <mxGeometry x="878" y="390" width="140" height="160" as="geometry" />
        </mxCell>
        <mxCell id="ZjG4IA8VryL87aqI9rix-15" value="" style="shape=cylinder3;whiteSpace=wrap;html=1;boundedLbl=1;backgroundOutline=1;size=15;fontSize=16;fillColor=#f5f5f5;fontColor=#333333;strokeColor=#666666;" vertex="1" parent="1">
          <mxGeometry x="878" y="630" width="140" height="150" as="geometry" />
        </mxCell>
        <mxCell id="ZjG4IA8VryL87aqI9rix-16" value="" style="rounded=1;whiteSpace=wrap;html=1;fontSize=16;fillColor=#ffcc99;strokeColor=#36393d;" vertex="1" parent="1">
          <mxGeometry x="668" y="150" width="120" height="150" as="geometry" />
        </mxCell>
        <mxCell id="ZjG4IA8VryL87aqI9rix-17" value="page cache" style="text;html=1;align=center;verticalAlign=middle;resizable=0;points=[];autosize=1;strokeColor=none;fillColor=none;fontSize=16;" vertex="1" parent="1">
          <mxGeometry x="678" y="120" width="100" height="20" as="geometry" />
        </mxCell>
        <mxCell id="ZjG4IA8VryL87aqI9rix-18" value="" style="rounded=1;whiteSpace=wrap;html=1;fontSize=16;fillColor=#cce5ff;strokeColor=#36393d;" vertex="1" parent="1">
          <mxGeometry x="160" y="400" width="140" height="150" as="geometry" />
        </mxCell>
        <mxCell id="ZjG4IA8VryL87aqI9rix-19" value="&lt;span style=&quot;&quot;&gt;redo log buffer&lt;/span&gt;" style="text;html=1;align=center;verticalAlign=middle;resizable=0;points=[];autosize=1;strokeColor=none;fillColor=none;fontSize=16;" vertex="1" parent="1">
          <mxGeometry x="370" y="370" width="120" height="20" as="geometry" />
        </mxCell>
        <mxCell id="ZjG4IA8VryL87aqI9rix-20" value="buffer pool" style="text;html=1;align=center;verticalAlign=middle;resizable=0;points=[];autosize=1;strokeColor=none;fillColor=none;fontSize=16;" vertex="1" parent="1">
          <mxGeometry x="190" y="370" width="90" height="20" as="geometry" />
        </mxCell>
        <mxCell id="ZjG4IA8VryL87aqI9rix-21" value="" style="rounded=1;whiteSpace=wrap;html=1;fontSize=16;fillColor=#cdeb8b;strokeColor=#36393d;" vertex="1" parent="1">
          <mxGeometry x="370" y="400" width="120" height="150" as="geometry" />
        </mxCell>
        <mxCell id="ZjG4IA8VryL87aqI9rix-22" value="DML 语句&lt;br&gt;（增删改）" style="text;html=1;align=center;verticalAlign=middle;resizable=0;points=[];autosize=1;strokeColor=none;fillColor=none;fontSize=16;" vertex="1" parent="1">
          <mxGeometry x="190" y="409" width="100" height="40" as="geometry" />
        </mxCell>
        <mxCell id="ZjG4IA8VryL87aqI9rix-23" value="commit&lt;br&gt;提交事务" style="text;html=1;align=center;verticalAlign=middle;resizable=0;points=[];autosize=1;strokeColor=none;fillColor=none;fontSize=16;" vertex="1" parent="1">
          <mxGeometry x="190" y="480" width="80" height="40" as="geometry" />
        </mxCell>
        <mxCell id="ZjG4IA8VryL87aqI9rix-24" value="" style="rounded=1;whiteSpace=wrap;html=1;fontSize=16;fillColor=#ffcc99;strokeColor=#36393d;" vertex="1" parent="1">
          <mxGeometry x="668" y="400" width="120" height="150" as="geometry" />
        </mxCell>
        <mxCell id="ZjG4IA8VryL87aqI9rix-25" value="page cache" style="text;html=1;align=center;verticalAlign=middle;resizable=0;points=[];autosize=1;strokeColor=none;fillColor=none;fontSize=16;" vertex="1" parent="1">
          <mxGeometry x="678" y="370" width="100" height="20" as="geometry" />
        </mxCell>
        <mxCell id="ZjG4IA8VryL87aqI9rix-26" value="" style="rounded=1;whiteSpace=wrap;html=1;fontSize=16;fillColor=#cce5ff;strokeColor=#36393d;" vertex="1" parent="1">
          <mxGeometry x="160" y="630" width="140" height="150" as="geometry" />
        </mxCell>
        <mxCell id="ZjG4IA8VryL87aqI9rix-27" value="&lt;span style=&quot;&quot;&gt;redo log buffer&lt;/span&gt;" style="text;html=1;align=center;verticalAlign=middle;resizable=0;points=[];autosize=1;strokeColor=none;fillColor=none;fontSize=16;" vertex="1" parent="1">
          <mxGeometry x="370" y="600" width="120" height="20" as="geometry" />
        </mxCell>
        <mxCell id="ZjG4IA8VryL87aqI9rix-28" value="buffer pool" style="text;html=1;align=center;verticalAlign=middle;resizable=0;points=[];autosize=1;strokeColor=none;fillColor=none;fontSize=16;" vertex="1" parent="1">
          <mxGeometry x="190" y="600" width="90" height="20" as="geometry" />
        </mxCell>
        <mxCell id="ZjG4IA8VryL87aqI9rix-29" value="" style="rounded=1;whiteSpace=wrap;html=1;fontSize=16;fillColor=#cdeb8b;strokeColor=#36393d;" vertex="1" parent="1">
          <mxGeometry x="370" y="630" width="120" height="150" as="geometry" />
        </mxCell>
        <mxCell id="ZjG4IA8VryL87aqI9rix-30" value="DML 语句&lt;br&gt;（增删改）" style="text;html=1;align=center;verticalAlign=middle;resizable=0;points=[];autosize=1;strokeColor=none;fillColor=none;fontSize=16;" vertex="1" parent="1">
          <mxGeometry x="190" y="639" width="100" height="40" as="geometry" />
        </mxCell>
        <mxCell id="ZjG4IA8VryL87aqI9rix-33" value="commit" style="text;html=1;align=center;verticalAlign=middle;resizable=0;points=[];autosize=1;strokeColor=none;fillColor=none;fontSize=16;" vertex="1" parent="1">
          <mxGeometry x="195" y="709" width="70" height="20" as="geometry" />
        </mxCell>
        <mxCell id="ZjG4IA8VryL87aqI9rix-34" value="" style="rounded=1;whiteSpace=wrap;html=1;fontSize=16;fillColor=#ffcc99;strokeColor=#36393d;" vertex="1" parent="1">
          <mxGeometry x="668" y="630" width="120" height="150" as="geometry" />
        </mxCell>
        <mxCell id="ZjG4IA8VryL87aqI9rix-35" value="page cache" style="text;html=1;align=center;verticalAlign=middle;resizable=0;points=[];autosize=1;strokeColor=none;fillColor=none;fontSize=16;" vertex="1" parent="1">
          <mxGeometry x="678" y="600" width="100" height="20" as="geometry" />
        </mxCell>
        <mxCell id="ZjG4IA8VryL87aqI9rix-36" value="" style="shape=flexArrow;endArrow=classic;html=1;rounded=0;fontSize=16;fillColor=#ffcd28;gradientColor=#ffa500;strokeColor=#d79b00;" edge="1" parent="1">
          <mxGeometry width="50" height="50" relative="1" as="geometry">
            <mxPoint x="190" y="210" as="sourcePoint" />
            <mxPoint x="370" y="210" as="targetPoint" />
          </mxGeometry>
        </mxCell>
        <mxCell id="ZjG4IA8VryL87aqI9rix-37" value="" style="shape=flexArrow;endArrow=classic;html=1;rounded=0;fontSize=16;fillColor=#ffcd28;gradientColor=#ffa500;strokeColor=#d79b00;" edge="1" parent="1">
          <mxGeometry width="50" height="50" relative="1" as="geometry">
            <mxPoint x="190" y="460" as="sourcePoint" />
            <mxPoint x="370" y="460" as="targetPoint" />
          </mxGeometry>
        </mxCell>
        <mxCell id="ZjG4IA8VryL87aqI9rix-40" value="" style="shape=flexArrow;endArrow=classic;html=1;rounded=0;fontSize=16;fillColor=#ffcd28;gradientColor=#ffa500;strokeColor=#d79b00;" edge="1" parent="1">
          <mxGeometry width="50" height="50" relative="1" as="geometry">
            <mxPoint x="200" y="690" as="sourcePoint" />
            <mxPoint x="370" y="690" as="targetPoint" />
          </mxGeometry>
        </mxCell>
        <mxCell id="ZjG4IA8VryL87aqI9rix-41" value="参数为 0" style="text;html=1;align=center;verticalAlign=middle;resizable=0;points=[];autosize=1;strokeColor=#36393d;fillColor=#ffff88;fontSize=16;" vertex="1" parent="1">
          <mxGeometry x="70" y="215" width="80" height="20" as="geometry" />
        </mxCell>
        <mxCell id="ZjG4IA8VryL87aqI9rix-42" value="参数为 1" style="text;html=1;align=center;verticalAlign=middle;resizable=0;points=[];autosize=1;strokeColor=#36393d;fillColor=#ffff88;fontSize=16;" vertex="1" parent="1">
          <mxGeometry x="80" y="470" width="80" height="20" as="geometry" />
        </mxCell>
        <mxCell id="ZjG4IA8VryL87aqI9rix-43" value="参数为 2" style="text;html=1;align=center;verticalAlign=middle;resizable=0;points=[];autosize=1;strokeColor=#36393d;fillColor=#ffff88;fontSize=16;" vertex="1" parent="1">
          <mxGeometry x="80" y="695" width="80" height="20" as="geometry" />
        </mxCell>
        <mxCell id="ZjG4IA8VryL87aqI9rix-44" value="&lt;span style=&quot;&quot;&gt;依然留存在 redo log buffer&lt;/span&gt;" style="edgeLabel;html=1;align=center;verticalAlign=middle;resizable=0;points=[];fontSize=16;labelBackgroundColor=#99FFFF;" vertex="1" connectable="0" parent="1">
          <mxGeometry x="369.9954019003221" y="250.00021682994702" as="geometry" />
        </mxCell>
        <mxCell id="ZjG4IA8VryL87aqI9rix-45" value="" style="endArrow=none;dashed=1;html=1;dashPattern=1 3;strokeWidth=2;rounded=0;labelBackgroundColor=#99FFFF;fontSize=16;fontColor=#99FFFF;" edge="1" parent="1">
          <mxGeometry width="50" height="50" relative="1" as="geometry">
            <mxPoint x="628" y="850" as="sourcePoint" />
            <mxPoint x="628" y="40" as="targetPoint" />
          </mxGeometry>
        </mxCell>
        <mxCell id="ZjG4IA8VryL87aqI9rix-46" value="" style="shape=curlyBracket;whiteSpace=wrap;html=1;rounded=1;flipH=1;labelBackgroundColor=#99FFFF;fontSize=16;fontColor=#99FFFF;rotation=-90;strokeColor=default;fillColor=default;" vertex="1" parent="1">
          <mxGeometry x="290" y="-150" width="20" height="470" as="geometry" />
        </mxCell>
        <mxCell id="ZjG4IA8VryL87aqI9rix-47" value="用户空间" style="text;html=1;align=center;verticalAlign=middle;resizable=0;points=[];autosize=1;strokeColor=#001DBC;fillColor=#0050ef;fontSize=16;fontColor=#ffffff;" vertex="1" parent="1">
          <mxGeometry x="260" y="50" width="80" height="20" as="geometry" />
        </mxCell>
        <mxCell id="ZjG4IA8VryL87aqI9rix-48" value="" style="shape=curlyBracket;whiteSpace=wrap;html=1;rounded=1;flipH=1;labelBackgroundColor=#99FFFF;fontSize=16;fontColor=#99FFFF;rotation=-90;strokeColor=default;fillColor=default;" vertex="1" parent="1">
          <mxGeometry x="723" y="-15" width="20" height="200" as="geometry" />
        </mxCell>
        <mxCell id="ZjG4IA8VryL87aqI9rix-49" value="内核空间" style="text;html=1;align=center;verticalAlign=middle;resizable=0;points=[];autosize=1;strokeColor=#001DBC;fillColor=#0050ef;fontSize=16;fontColor=#ffffff;" vertex="1" parent="1">
          <mxGeometry x="698" y="50" width="80" height="20" as="geometry" />
        </mxCell>
        <mxCell id="ZjG4IA8VryL87aqI9rix-50" value="" style="rounded=1;whiteSpace=wrap;html=1;strokeWidth=2;fillWeight=4;hachureGap=8;hachureAngle=45;fillColor=#1ba1e2;sketch=1;" vertex="1" parent="1">
          <mxGeometry x="555" y="150" width="30" height="150" as="geometry" />
        </mxCell>
        <mxCell id="ZjG4IA8VryL87aqI9rix-51" value="后台线程" style="text;html=1;align=center;verticalAlign=middle;resizable=0;points=[];autosize=1;strokeColor=none;fillColor=none;fontSize=16;" vertex="1" parent="1">
          <mxGeometry x="530" y="600" width="80" height="20" as="geometry" />
        </mxCell>
        <mxCell id="ZjG4IA8VryL87aqI9rix-38" value="" style="shape=flexArrow;endArrow=classic;html=1;rounded=0;fontSize=16;fillColor=#f8cecc;gradientColor=#ea6b66;strokeColor=#b85450;entryX=0.007;entryY=0.844;entryDx=0;entryDy=0;entryPerimeter=0;" edge="1" parent="1" target="ZjG4IA8VryL87aqI9rix-14">
          <mxGeometry width="50" height="50" relative="1" as="geometry">
            <mxPoint x="190" y="530" as="sourcePoint" />
            <mxPoint x="780" y="530" as="targetPoint" />
          </mxGeometry>
        </mxCell>
        <mxCell id="ZjG4IA8VryL87aqI9rix-39" value="&lt;span style=&quot;&quot;&gt;写入 redo log 文件并且刷盘&lt;/span&gt;" style="edgeLabel;html=1;align=center;verticalAlign=middle;resizable=0;points=[];fontSize=16;labelBackgroundColor=#99FFFF;" vertex="1" connectable="0" parent="ZjG4IA8VryL87aqI9rix-38">
          <mxGeometry x="-0.0357" y="3" relative="1" as="geometry">
            <mxPoint x="78" y="-17" as="offset" />
          </mxGeometry>
        </mxCell>
        <mxCell id="ZjG4IA8VryL87aqI9rix-52" value="" style="shape=flexArrow;endArrow=classic;html=1;rounded=0;fontSize=16;fillColor=#dae8fc;gradientColor=#7ea6e0;strokeColor=#6c8ebf;labelBackgroundColor=#99FFFF;" edge="1" parent="1">
          <mxGeometry width="50" height="50" relative="1" as="geometry">
            <mxPoint x="585" y="761.98" as="sourcePoint" />
            <mxPoint x="880" y="762" as="targetPoint" />
          </mxGeometry>
        </mxCell>
        <mxCell id="ZjG4IA8VryL87aqI9rix-53" value="每隔一秒将 page cache 里的&lt;br&gt;数据持久化到磁盘" style="edgeLabel;html=1;align=center;verticalAlign=middle;resizable=0;points=[];fontSize=16;labelBackgroundColor=#00FF00;" vertex="1" connectable="0" parent="ZjG4IA8VryL87aqI9rix-52">
          <mxGeometry x="-0.2368" y="-3" relative="1" as="geometry">
            <mxPoint x="78" y="-36" as="offset" />
          </mxGeometry>
        </mxCell>
        <mxCell id="ZjG4IA8VryL87aqI9rix-56" value="" style="rounded=1;whiteSpace=wrap;html=1;strokeWidth=2;fillWeight=4;hachureGap=8;hachureAngle=45;fillColor=#1ba1e2;sketch=1;" vertex="1" parent="1">
          <mxGeometry x="550" y="630" width="30" height="150" as="geometry" />
        </mxCell>
        <mxCell id="ZjG4IA8VryL87aqI9rix-31" value="" style="shape=flexArrow;endArrow=classic;html=1;rounded=0;fontSize=16;fillColor=#f8cecc;gradientColor=#ea6b66;strokeColor=#b85450;labelBackgroundColor=#99FFFF;entryX=0;entryY=0.847;entryDx=0;entryDy=0;entryPerimeter=0;" edge="1" parent="1">
          <mxGeometry width="50" height="50" relative="1" as="geometry">
            <mxPoint x="198" y="740" as="sourcePoint" />
            <mxPoint x="668" y="737.0500000000002" as="targetPoint" />
          </mxGeometry>
        </mxCell>
        <mxCell id="ZjG4IA8VryL87aqI9rix-32" value="写入 redo log 文件（不刷盘）" style="edgeLabel;html=1;align=center;verticalAlign=middle;resizable=0;points=[];fontSize=16;labelBackgroundColor=#99FFFF;" vertex="1" connectable="0" parent="ZjG4IA8VryL87aqI9rix-31">
          <mxGeometry x="-0.2368" y="-3" relative="1" as="geometry">
            <mxPoint x="63" y="-23" as="offset" />
          </mxGeometry>
        </mxCell>
        <mxCell id="ZjG4IA8VryL87aqI9rix-57" value="" style="shape=flexArrow;endArrow=classic;html=1;rounded=0;fontSize=16;fillColor=#dae8fc;gradientColor=#7ea6e0;strokeColor=#6c8ebf;labelBackgroundColor=#99FFFF;" edge="1" parent="1">
          <mxGeometry width="50" height="50" relative="1" as="geometry">
            <mxPoint x="590.5" y="280" as="sourcePoint" />
            <mxPoint x="885.5" y="280.02" as="targetPoint" />
          </mxGeometry>
        </mxCell>
        <mxCell id="ZjG4IA8VryL87aqI9rix-58" value="每隔一秒写入redo log 文件，&lt;br&gt;然后持久化到磁盘" style="edgeLabel;html=1;align=center;verticalAlign=middle;resizable=0;points=[];fontSize=16;labelBackgroundColor=#00FF00;" vertex="1" connectable="0" parent="ZjG4IA8VryL87aqI9rix-57">
          <mxGeometry x="-0.2368" y="-3" relative="1" as="geometry">
            <mxPoint x="47" y="-36" as="offset" />
          </mxGeometry>
        </mxCell>
        <mxCell id="ZjG4IA8VryL87aqI9rix-62" value="" style="shape=flexArrow;endArrow=classic;html=1;rounded=0;fontSize=16;fillColor=#dae8fc;gradientColor=#7ea6e0;strokeColor=#6c8ebf;" edge="1" parent="1">
          <mxGeometry width="50" height="50" relative="1" as="geometry">
            <mxPoint x="550" y="184" as="sourcePoint" />
            <mxPoint x="490" y="184" as="targetPoint" />
          </mxGeometry>
        </mxCell>
        <mxCell id="ZjG4IA8VryL87aqI9rix-63" value="读取" style="text;html=1;align=center;verticalAlign=middle;resizable=0;points=[];autosize=1;strokeColor=none;fillColor=none;fontSize=16;labelBackgroundColor=#00FF00;" vertex="1" parent="1">
          <mxGeometry x="500" y="150" width="50" height="20" as="geometry" />
        </mxCell>
      </root>
    </mxGraphModel>
  </diagram>
</mxfile>
